<svg aria-hidden="true" style="position: absolute; width: 0; height: 0; overflow: hidden;" version="1.1" xmlns="http://www.w3.org/2000/svg" xmlns:xlink="http://www.w3.org/1999/xlink">
<defs>
<symbol id="icon-mob-menu" viewBox="0 0 32 32">
<path fill="#fff" style="fill: var(--color1, #fff)" d="M31.68 4.799h-31.36c-0.176 0-0.32 0.115-0.32 0.255v2.036c0 0.14 0.144 0.255 0.32 0.255h31.36c0.176 0 0.32-0.115 0.32-0.255v-2.036c0-0.14-0.144-0.255-0.32-0.255zM31.68 24.654h-31.36c-0.176 0-0.32 0.115-0.32 0.255v2.036c0 0.14 0.144 0.255 0.32 0.255h31.36c0.176 0 0.32-0.115 0.32-0.255v-2.036c0-0.14-0.144-0.255-0.32-0.255zM31.68 14.727h-31.36c-0.176 0-0.32 0.115-0.32 0.255v2.036c0 0.14 0.144 0.255 0.32 0.255h31.36c0.176 0 0.32-0.115 0.32-0.255v-2.036c0-0.14-0.144-0.255-0.32-0.255z"></path>
</symbol>
<symbol id="icon-Vector" viewBox="0 0 28 32">
<path  stroke="#aeaeae" style="stroke: var(--color1, #aeaeae)" stroke-linejoin="round" stroke-linecap="butt" stroke-miterlimit="4" stroke-width="0.4848" d="M27.636 29.859c0 0-3.642 3.157-9.302 0.753s-9.121-10.441-10.537-11.123c-1.416-0.682-3.246-1.033-4.228-2.21s-1.174-1.156-1.314-1.357-0.639-0.913-1.276-0.827c-0.637 0.086-0.58-0.104-0.268-0.338s-0.198-1.371 0.676-1.73c0.874-0.359 1.631-0.432 2.347 0.273s1.057-1.297 1.907-1.442c0.85-0.145 0.365-0.96 0.484-2.369s0.209-2.322 0.656-3.27c0.447-0.948-0.094-3.27 0.576-4.726s-0.075-1.794-2.057 2.166c-1.982 3.96-2.116 3.605-2.071 5.7s0.254 2.816-0.226 2.998c-0.48 0.183 0.393 0.173 0.759 0.592s0.586 0.769 1.364-0.033c0.778-0.803 2.151-1.785 3.899-2.25s6.853-1.531 8.649-2.181c1.796-0.65 1.913-0.206-0.47 0.664s-2.3 1.462-3.602 2.025c-1.303 0.563-1.427 1.44-3.55 2.311s-2.12 1.926-2.842 1.969-0.868-0.187-1.215-0.355c-0.348-0.168 0.721 0.149 1.243 1.566s1.642 3.712 4.082 5.696c2.44 1.984 3.061 2.658 3.061 2.658s-2.817-2.153-3.714-2.937c-0.897-0.784-3.338-3.030-2.931-1.713s1.187 2.027 1.741 4.121c0.351 1.325-0.658-1.629-1.329-2.482s-1.202-2.085-1.395-2.396"></path>
</symbol>
</defs>
</svg>
