<svg aria-hidden="true" style="position: absolute; width: 0; height: 0; overflow: hidden;" version="1.1" xmlns="http://www.w3.org/2000/svg" xmlns:xlink="http://www.w3.org/1999/xlink">
<defs>
<symbol id="icon-mob-menu" viewBox="0 0 32 32">
<path fill="#fff" style="fill: var(--color1, #fff)" d="M31.68 4.799h-31.36c-0.176 0-0.32 0.115-0.32 0.255v2.036c0 0.14 0.144 0.255 0.32 0.255h31.36c0.176 0 0.32-0.115 0.32-0.255v-2.036c0-0.14-0.144-0.255-0.32-0.255zM31.68 24.654h-31.36c-0.176 0-0.32 0.115-0.32 0.255v2.036c0 0.14 0.144 0.255 0.32 0.255h31.36c0.176 0 0.32-0.115 0.32-0.255v-2.036c0-0.14-0.144-0.255-0.32-0.255zM31.68 14.727h-31.36c-0.176 0-0.32 0.115-0.32 0.255v2.036c0 0.14 0.144 0.255 0.32 0.255h31.36c0.176 0 0.32-0.115 0.32-0.255v-2.036c0-0.14-0.144-0.255-0.32-0.255z"></path>
</symbol>
</defs>
</svg>
