<svg width="58" height="66" viewBox="0 0 58 66" fill="none" xmlns="http://www.w3.org/2000/svg">
<path d="M57 61.5842C57 61.5842 49.4874 68.0957 37.8151 63.1381C26.1428 58.1805 19.0031 41.6033 16.0833 40.1972C13.1635 38.7912 9.38796 38.0669 7.36289 35.6392C5.33781 33.2116 4.94138 33.2541 4.65209 32.841C4.36279 32.4279 3.33378 30.9572 2.01963 31.135C0.705479 31.3129 0.823965 30.9205 1.46595 30.4381C2.10794 29.9557 1.05817 27.6112 2.86011 26.87C4.66205 26.1289 6.2237 25.9791 7.6998 27.433C9.1759 28.8869 9.88073 24.7572 11.6334 24.4579C13.3861 24.1586 12.3864 22.478 12.6322 19.5712C12.8781 16.6644 13.0633 14.7812 13.9851 12.8264C14.907 10.8716 13.7913 6.08132 15.1736 3.0785C16.5559 0.0756911 15.0191 -0.620896 10.9319 7.5461C6.84464 15.7131 6.56864 14.9819 6.6611 19.3033C6.75357 23.6247 7.1846 25.1109 6.19546 25.4877C5.20632 25.8646 7.00604 25.8454 7.75987 26.7087C8.5137 27.5719 8.96882 28.2952 10.5737 26.6397C12.1785 24.9842 15.0108 22.9575 18.6155 21.9989C22.2202 21.0403 32.7501 18.8406 36.4542 17.4999C40.1583 16.1592 40.4002 17.0749 35.4852 18.8693C30.5702 20.6638 30.7424 21.8837 28.0557 23.0456C25.369 24.2074 25.1129 26.0154 20.7347 27.8124C16.3565 29.6095 16.3618 31.7841 14.8724 31.8732C13.383 31.9623 13.0829 31.4874 12.3656 31.14C11.6483 30.7925 13.8528 31.4482 14.9292 34.3698C16.0055 37.2914 18.3168 42.0253 23.3489 46.1171C28.381 50.2088 29.6625 51.5987 29.6625 51.5987C29.6625 51.5987 23.853 47.1582 22.0024 45.5413C20.1517 43.9244 15.1188 39.2928 15.9579 42.0072C16.797 44.7216 18.4054 46.188 19.5493 50.5068C20.2738 53.2393 18.1928 47.1469 16.8086 45.3872C15.4244 43.6274 14.3292 41.0865 13.9312 40.4444" stroke="#AEAEAE" stroke-linejoin="round"/>
</svg>